# xmcd CD database file
#
# Track frame offsets:
#	183
#	29733
#	49683
#	78108
#	98433
#	129483
#	155358
#	178983
#	204408
#
# Disc length: 2921 seconds
#
# Revision: 0
# Processed by: cddbd v1.5.2PL0 Copyright (c) Steve Scherf et al.
# Submitted via: CDex 1.51
#
DISCID=6c0b6709
DTITLE=Destination NewAge - Welcome
DYEAR=1994
DGENRE=New Age
TTITLE0=HANG-GLIDER
TTITLE1=SKY
TTITLE2=TIME
TTITLE3=FANTASTIC RAIN
TTITLE4=EXPRESS
TTITLE5=URBANIA
TTITLE6=EAGLE
TTITLE7=WILD HORSES
TTITLE8=SEA VISION
EXTD=YEAR: 1994
EXTT0=
EXTT1=
EXTT2=
EXTT3=
EXTT4=
EXTT5=
EXTT6=
EXTT7=
EXTT8=
PLAYORDER=
